<?xml version="1.0" standalone="no"?>
<!DOCTYPE svg PUBLIC "-//W3C//DTD SVG 20010904//EN"
 "http://www.w3.org/TR/2001/REC-SVG-20010904/DTD/svg10.dtd">
<svg version="1.0" xmlns="http://www.w3.org/2000/svg"
 width="512.000000pt" height="512.000000pt" viewBox="0 0 512.000000 512.000000"
 preserveAspectRatio="xMidYMid meet">
<metadata>
Created by potrace 1.14, written by Peter Selinger 2001-2017
</metadata>
<g transform="translate(0.000000,512.000000) scale(0.100000,-0.100000)"
fill="#000000" stroke="none">
<path d="M1918 5115 c-2 -2 -18 -6 -36 -10 -140 -24 -296 -143 -369 -281 -26
-49 -69 -178 -103 -309 -5 -16 -19 -69 -33 -116 -23 -80 -23 -89 -10 -118 9
-17 22 -31 30 -31 10 0 12 -6 7 -22 -4 -13 -13 -43 -20 -68 -29 -104 -29 -104
-60 -112 -55 -14 -53 -9 -179 -443 -63 -214 -52 -345 41 -505 53 -91 142 -172
237 -215 49 -23 212 -74 427 -134 36 -10 232 -67 435 -126 204 -59 397 -114
430 -122 71 -17 189 -15 260 3 129 34 260 129 331 240 28 44 93 213 109 284 2
8 35 123 73 255 38 132 102 353 142 490 39 138 74 257 77 265 7 17 9 25 22 94
38 202 -66 437 -245 552 -74 48 -100 57 -454 159 -179 52 -458 133 -620 180
-261 76 -306 87 -391 90 -54 2 -99 2 -101 0z"/>
<path d="M1768 2515 c-1 -1 -25 -5 -53 -9 -27 -3 -158 -23 -290 -45 -132 -22
-258 -42 -280 -46 -23 -3 -52 -8 -65 -10 -14 -3 -45 -8 -70 -11 -25 -3 -52 -7
-60 -9 -8 -2 -103 -18 -210 -36 -107 -17 -208 -33 -225 -36 -48 -8 -156 -53
-204 -86 -105 -72 -192 -196 -226 -323 -15 -55 -21 -182 -11 -231 3 -11 8 -43
12 -70 5 -26 9 -50 9 -53 1 -3 5 -30 9 -60 5 -30 10 -64 12 -75 2 -10 6 -37 9
-60 15 -102 40 -145 87 -145 12 0 18 -8 19 -22 0 -13 2 -32 5 -43 2 -11 6 -40
10 -65 3 -25 7 -48 8 -51 0 -3 -12 -17 -28 -31 -33 -28 -36 -53 -18 -153 6
-33 14 -78 17 -100 3 -23 7 -52 10 -65 3 -13 7 -42 10 -65 3 -22 10 -62 15
-90 5 -27 12 -64 15 -81 29 -180 179 -348 372 -415 65 -23 212 -32 287 -18 26
5 68 11 94 14 26 4 54 8 62 10 8 3 33 7 55 10 22 4 51 8 65 11 100 17 201 34
233 38 20 3 54 9 75 12 20 3 44 7 52 9 8 2 35 7 60 10 25 3 59 9 75 11 17 3
41 7 55 9 14 2 39 6 55 9 55 10 89 15 195 31 185 28 255 53 355 127 166 123
246 332 211 553 -3 17 -14 84 -25 150 -11 66 -22 134 -24 150 -7 43 -36 224
-44 265 -3 19 -7 42 -8 50 -3 21 -26 167 -30 193 -15 82 -55 330 -60 367 -30
211 -200 404 -405 460 -41 12 -203 23 -212 15z"/>
<path d="M3138 2455 c-184 -45 -334 -186 -395 -370 -25 -76 -26 -92 -28 -320
-3 -273 1 -307 45 -325 l30 -12 0 -98 c0 -95 -1 -98 -24 -104 -48 -12 -53 -43
-51 -344 1 -304 6 -335 67 -456 39 -78 153 -192 228 -227 140 -68 85 -63 845
-65 551 -2 703 1 754 12 181 38 340 172 404 338 19 52 24 67 34 121 6 31 8
1270 2 1360 -13 222 -192 430 -419 490 -79 21 -1406 20 -1492 0z"/>
</g>
</svg>
